PathFileType	4	(X/Y/Z)	Patient4_TMGait_0pt6_01_right_27.trc.trc
DataRate	CameraRate	NumFrames	NumMarkers	Units	OrigDataRate	OrigDataStartFrame	OrigNumFrames
82.352941176470	82.352941176470	4	33	mm	82.352941176470	89	       141
Frame#	Time	Sacral			L.Shoulder			Chest			R.Shoulder			Neck			R.ASIS			L.ASIS			R.Thigh.Superior			R.Thigh.Lateral			R.Thigh.Inferior			R.Patella			L.Thigh.Superior			L.Thigh.Lateral			L.Thigh.Inferior			L.Patella			L.Shank.Superior			L.Shank.Lateral			L.Shank.Inferior			R.Shank.Superior			R.Shank.Lateral			R.Shank.Inferior			R.Heel			R.Midfoot.Superior			R.Midfoot.Lateral			R.Toe			L.Heel			L.Midfoot.Lateral			L.Midfoot.Superior			L.Toe			L.Elbow			L.Wrist			R.Elbow			R.Wrist			
		X1	Y1	Z1	X2	Y2	Z2	X3	Y3	Z3	X4	Y4	Z4	X5	Y5	Z5	X6	Y6	Z6	X7	Y7	Z7	X8	Y8	Z8	X9	Y9	Z9	X10	Y10	Z10	X11	Y11	Z11	X12	Y12	Z12	X13	Y13	Z13	X14	Y14	Z14	X15	Y15	Z15	X16	Y16	Z16	X17	Y17	Z17	X18	Y18	Z18	X19	Y19	Z19	X20	Y20	Z20	X21	Y21	Z21	X22	Y22	Z22	X23	Y23	Z23	X24	Y24	Z24	X25	Y25	Z25	X26	Y26	Z26	X27	Y27	Z27	X28	Y28	Z28	X29	Y29	Z29	X30	Y30	Z30	X31	Y31	Z31	X32	Y32	Z32	X33	Y33	Z33	

89	33.318571428571	751.198714161786	1007.629245163063	469.674244711685	901.502781273072	1437.221862861221	287.808870502608	1016.352559165744	1372.356168585862	441.755748496036	940.489323293717	1441.237470407267	620.123730388463	889.500255089158	1495.702773718477	443.187608962276	977.597672870474	940.260854069574	581.105450462687	962.419945786098	963.982969285958	308.797986380812	1014.363329752940	735.341618653129	559.433864381860	932.068412629703	626.273586009785	621.016292117961	1013.822852540348	567.030106111154	547.941355638541	1001.975959702451	456.773169456219	566.175403521861	1025.623621484722	760.278527011629	339.205312638367	947.579648770184	636.735878453128	282.518418773512	1038.953821791561	567.496830681147	346.842105734515	1045.222399974507	498.312743158851	357.470842347455	1024.297435387277	424.402317344817	350.053731813150	943.927985452391	302.790158377958	301.021553551652	1004.348916170535	197.596088137998	374.050632326458	922.757858770941	391.416631168071	567.162730410629	799.839175219599	352.309784857414	623.783665999530	784.949171215916	245.498442533747	569.186340629252	581.828234538533	178.828486673062	534.514722490046	752.145244616226	129.651198948369	575.964000868641	642.528554090729	119.761206666894	605.840117158745	823.222306409950	31.357370170224	598.199098310572	886.519526318594	37.725545316050	419.420679972402	959.439522901861	35.612643032852	337.320857694002	1041.242447817247	97.971919530207	362.699457550700	1170.268077654327	49.159823693731	333.786626491416	867.926716797875	1080.781229543625	176.206583956071	924.127782471943	826.970991428870	171.521136363606	997.302764508019	1095.401224606320	736.452419309209	1234.693209433966	1003.098516832951	704.805111916156	
90	33.330714285714	750.228055868006	1007.923788336670	467.451985533520	902.901930327458	1437.705130283782	285.797275428436	1016.318449325866	1372.676462353637	440.712784871459	939.009080572871	1441.548527480518	618.461488277059	889.447119673964	1496.254647766114	441.045346981655	976.289056565117	941.013899014402	579.755413272681	962.146626767649	964.400816947501	307.615896357414	1019.497651606038	738.810728462216	558.123796662164	941.432320369106	627.692344140701	620.252992806630	1024.863182228740	570.372503202947	546.870848065488	1015.133024884441	458.788775948568	565.549708084028	1023.593213480765	759.283931295877	337.549374486414	944.308588464588	636.678772805839	281.358995072327	1034.818582136837	566.682311074941	345.919342451301	1040.289120027795	497.598684944160	356.748028256883	1019.086789996906	423.859479766323	349.365532492055	938.140052003303	302.604943265041	300.632059805571	997.755505071054	197.205549387654	373.861655905388	934.279997821697	393.868130527903	566.512385188297	810.108403606913	358.555541546747	623.139022425059	791.910163479781	252.265092062606	568.917624001774	587.199817805793	194.342569534514	534.269647669283	754.942743111819	136.205359848374	575.786895623180	644.762308735272	131.699507135475	605.445036602945	820.861093941597	32.038767876201	597.950434400388	879.092822362346	37.669209342212	419.362326958327	952.014367481399	35.520742153790	337.277638058693	1033.979574884431	97.710169133843	362.743045020372	1162.982597311992	48.591355069199	333.801096427690	876.718499361894	1081.237018009740	171.697944578435	943.723257998355	829.871069270229	166.366475261479	985.802466880324	1093.798322915818	734.765571806670	1217.399918695043	986.224411789681	705.003083061821	
91	33.342857142857	749.127481016412	1008.015812294292	465.394305235216	904.201278676243	1437.990085479446	283.937150918688	1016.191382862348	1372.801545804706	439.815224909696	937.448387855569	1441.642086849202	616.966375532918	889.371544691204	1496.663450526793	439.036871804790	974.956097285119	941.612068166891	578.558952308557	961.744709534751	964.661450522456	306.489656321519	1024.376472300440	742.435605471094	556.660024818297	950.715805722824	629.434106039903	619.447681112264	1035.533545728106	574.134325347499	545.579743986714	1028.150101791309	461.381956440790	564.604474504622	1021.481053246284	758.341599197727	336.312887561193	941.322779179361	636.633607012195	280.239236270113	1030.878353434958	565.912675092994	345.178300102290	1035.571039687037	496.856405647587	356.116106842205	1014.061091867020	423.276054728273	348.762332570061	932.522702674012	302.413690474746	300.248657312598	991.252130257910	196.780467623254	373.706405388641	945.932851963685	396.687138842689	565.668057809376	820.783358319392	364.703402149339	622.357947248136	799.629958841161	258.977573589948	568.447049753815	593.781686192641	208.730710478675	533.969246232835	759.046117418078	142.925570228978	575.371561040925	648.557451163741	143.084445975989	604.943675368797	820.347450582954	33.472273627028	597.368863821347	871.672922734194	37.620193058856	419.307815564139	944.599156883022	35.445523292063	337.241125177529	1026.736798944706	97.447804716551	362.806336618283	1155.713960035558	47.972566794941	333.822864082811	885.404076785018	1081.740962800378	167.332371287715	963.492570067651	833.363460721275	161.386163294302	974.374684971276	1092.266375142089	733.064681669116	1198.827821389780	969.296644040557	705.104794813574	
92	33.355000000000	747.929214768929	1007.971326935623	463.490246515111	905.350533897152	1438.135707938931	282.249390214439	1015.958534276964	1372.795153011034	439.057812772221	935.828737383330	1441.579535708843	615.644291479255	889.261377606520	1496.972729306832	437.190272158088	973.639806786165	942.113817637666	577.500900676625	961.269496660227	964.834912390814	305.388289260906	1028.900567386578	746.202225720140	555.025172478099	959.753025369598	631.516982147021	618.595050305614	1045.691128529159	578.297822526783	544.109071031938	1040.885476272403	464.542911215009	563.429333027230	1019.358830528173	757.485162682840	335.398738628818	938.564739928839	636.600096890208	279.173530153420	1027.127398737519	565.180727855823	344.554955002235	1031.073874158589	496.098515398113	355.555644035342	1009.221386871654	422.665761026459	348.237609905509	927.069307945334	302.232529882229	299.868060112210	984.841722226689	196.337607143328	373.574637767685	957.596725251914	399.850166539076	564.695118053165	831.722521329770	370.620221142998	621.482988979992	808.087697420286	265.429930359677	567.827495343200	601.478770149936	221.495991934431	533.653589205071	764.561852040948	149.517156150650	574.748413192164	653.965298530058	153.448201039111	604.362307686351	821.986516776564	35.629498842366	596.446348636769	864.275147225575	37.585159224657	419.253593275008	937.209168341179	35.392196359576	337.205693211167	1019.517023242197	97.205056222076	362.874118639360	1148.467221449616	47.347664899484	333.838313145019	893.997196367239	1082.336405788365	163.162685830666	983.319832751779	837.517205036716	156.615378666475	963.108437823988	1090.870469365732	731.359498057659	1178.970761056967	952.474515247976	705.114934587011	
